# xmcd CD database file
#
# Track frame offsets:
#	150
#	23436
#	40700
#	69775
#	90927
#	117893
#	150360
#	173012
#	205027
#
# Disc length: 2959 seconds
#
# Revision: 0
# Processed by: cddbd v1.4PL0 Copyright (c) Steve Scherf et al.
# Submitted via: CDex 1.50
#
DISCID=530b8d09
DTITLE=TORE JOHANSEN - Happy Days
DYEAR=2002
DGENRE=Jazz
TTITLE0=ALONE
TTITLE1=SOMETHING FOR THE FUTURE
TTITLE2=BROKEN WING
TTITLE3=HAPPY DAYS
TTITLE4=ELLEN AND DAVID
TTITLE5=BOOK OF JOSHUA
TTITLE6=ANDY WINNERIS
TTITLE7=GOLDEN EARRINGS
TTITLE8=ANSWER ME MY LOVE
EXTD=YEAR: 2002
EXTT0=
EXTT1=
EXTT2=
EXTT3=
EXTT4=
EXTT5=
EXTT6=
EXTT7=
EXTT8=
PLAYORDER=
